# xmcd CD database file
#
# Track frame offsets:
#	150
#	6595
#	22416
#	28187
#	48284
#	66093
#	78315
#	91060
#	109806
#	130802
#	135454
#	149176
#	169909
#	187043
#	203126
#	216847
#
# Disc length: 3040 seconds
#
# Revision: 0
# Processed by: cddbd v1.5.2PL0 Copyright (c) Steve Scherf et al.
# Submitted via: CDex 1.51
#
DISCID=f10bde10
DTITLE=Aval'Anches - Gold and Blue
DYEAR=2001
DGENRE=Jazz
TTITLE0=Prélude (George Gershwin)
TTITLE1=Prélude (George Gershwin)
TTITLE2=Prélude (George Gershwin)
TTITLE3=Ulla in Africa (Heiner Wiberny)
TTITLE4=Libertango (Astor Piazzola)
TTITLE5=Waltz Jazz (Paul A. Nagle)
TTITLE6=Quartet no. 1 premier mouvement (Bob Mintzer)
TTITLE7=Quartet no. 1 deuxième mouvement (Bob Mintzer)
TTITLE8=Quartet no. 1 troisième mouvement (Bob Mintzer)
TTITLE9=Suite Hellenique (Pedro Itturalde)
TTITLE10=Suite Hellenique (Pedro Itturalde)
TTITLE11=Suite Hellenique (Pedro Itturalde)
TTITLE12=Emily Kate (Lennie Niehaus)
TTITLE13=Segment (Charlie Parker)
TTITLE14=When the Saints Go Marching In (arrgt. Lennie Niehaus)
TTITLE15=Faune Streets (Pierre Martial July)
EXTD=YEAR: 2001
EXTT0=
EXTT1=
EXTT2=
EXTT3=
EXTT4=
EXTT5=
EXTT6=
EXTT7=
EXTT8=
EXTT9=
EXTT10=
EXTT11=
EXTT12=
EXTT13=
EXTT14=
EXTT15=
PLAYORDER=
